<svg width="28" height="187" viewBox="0 0 28 187" fill="none" xmlns="http://www.w3.org/2000/svg">
<rect x="20.3789" y="4.94824" width="4" height="27" transform="rotate(49 20.3789 4.94824)" fill="#3F8076"/>
<rect width="4" height="27" transform="matrix(-0.743145 0.669131 0.669131 0.743145 3.95703 158.943)" fill="#3F8076"/>
<rect width="4" height="139" transform="matrix(-1 0 0 1 4.76953 23)" fill="#3F8076"/>
<path d="M14.7695 181C14.7695 184.314 17.4558 187 20.7695 187C24.0832 187 26.7695 184.314 26.7695 181C26.7695 177.686 24.0832 175 20.7695 175C17.4558 175 14.7695 177.686 14.7695 181Z" fill="#D16D39"/>
<path d="M15.7695 6C15.7695 9.31371 18.4558 12 21.7695 12C25.0832 12 27.7695 9.31371 27.7695 6C27.7695 2.68629 25.0832 0 21.7695 0C18.4558 0 15.7695 2.68629 15.7695 6Z" fill="#D16D39"/>
</svg>
