<svg width="28" height="187" viewBox="0 0 28 187" fill="none" xmlns="http://www.w3.org/2000/svg">
<rect width="4" height="27" transform="matrix(-0.656059 0.75471 0.75471 0.656059 7.39062 4.94824)" fill="#3F8076"/>
<rect x="23.8125" y="158.943" width="4" height="27" transform="rotate(42 23.8125 158.943)" fill="#3F8076"/>
<rect x="23" y="23" width="4" height="139" fill="#3F8076"/>
<path d="M13 181C13 184.314 10.3137 187 7 187C3.68629 187 1 184.314 1 181C1 177.686 3.68629 175 7 175C10.3137 175 13 177.686 13 181Z" fill="#D16D39"/>
<path d="M12 6C12 9.31371 9.31371 12 6 12C2.68629 12 0 9.31371 0 6C0 2.68629 2.68629 0 6 0C9.31371 0 12 2.68629 12 6Z" fill="#D16D39"/>
</svg>
